<svg id="РЎР»РѕР№_1" data-name="РЎР»РѕР№ 1" xmlns="http://www.w3.org/2000/svg" viewBox="0 0 183.95 164.93"><defs><style>.cls-1,.cls-3{fill:#fff;}.cls-1{stroke:#fff;stroke-miterlimit:10;}.cls-2{fill:#ea6936;}</style></defs><path class="cls-1" d="M128.41,137.34l-11.25-12.51a4.8,4.8,0,0,0-6.5-.59.37.37,0,0,1-.51,0L97.43,110a.65.65,0,0,1,0-.16c.1-.13.19-.26.3-.39C108.18,96.62,112.05,82,109.22,65.7,105,41.5,83.56,23,59,22.31a53.14,53.14,0,0,0-54.34,45C4.36,69,4.21,70.72,4,72.42v5.92c0,.29.11.58.15.87.22,1.76.35,3.53.65,5.28a53,53,0,0,0,80.48,35.85c.53-.32,1-.66,1.59-1a.38.38,0,0,1,.48.06l12.54,14a.38.38,0,0,1,0,.52c-2.28,2.29-1.71,4.8.22,6.93q19.36,21.38,38.56,42.89a7,7,0,0,0,3.43,2.5l1.94-.36a16.05,16.05,0,0,0,2.43-1.62c3.29-2.87,6.52-5.82,9.76-8.74,2.4-2.16,2.5-4.4.33-6.82Q142.47,153,128.41,137.34ZM57,119.68a44.3,44.3,0,1,1,44.37-44.16A44.25,44.25,0,0,1,57,119.68Z" transform="translate(-3.5 -21.79)"/><polygon class="cls-1" points="183.45 28.93 183.45 21.36 156.35 21.36 156.35 28.93 165.63 28.93 165.63 74.59 130.34 74.59 130.34 28.93 139.62 28.93 139.62 21.36 112.52 21.36 112.52 28.93 121.8 28.93 121.8 74.59 112.52 74.59 112.52 82.16 176 82.16 176 98.4 183.45 98.4 183.45 74.59 174.17 74.59 174.17 28.93 183.45 28.93"/><path class="cls-2" d="M79.32,84.63A20.3,20.3,0,0,1,77.56,93a22.28,22.28,0,0,1-4.72,6.85,21.55,21.55,0,0,1-7,4.58,22.48,22.48,0,0,1-8.6,1.66,21.73,21.73,0,0,1-13.64-4.85,22.13,22.13,0,0,1-5-5.79,23.05,23.05,0,0,1-2.91-7.76h6.47a14.2,14.2,0,0,0,2.18,4.76,17.16,17.16,0,0,0,3.51,3.74,16.59,16.59,0,0,0,4.39,2.5,13.29,13.29,0,0,0,4.81.93,15.84,15.84,0,0,0,6.06-1.16,15.05,15.05,0,0,0,8.19-7.95,14.67,14.67,0,0,0,1.2-6,14.75,14.75,0,0,0-9.16-13.83,15.47,15.47,0,0,0-6-1.15,19.75,19.75,0,0,0-4.25.46,19.27,19.27,0,0,0-3.93,1.29,12.56,12.56,0,0,0-3.06,2,6,6,0,0,0-1.71,2.4L38.9,74.18l5-31.17H74v5.74H49.16L46,66.87a10.73,10.73,0,0,1,5.08-2.72,25.12,25.12,0,0,1,7.13-1.07,20,20,0,0,1,8.27,1.71,21.18,21.18,0,0,1,6.66,4.63,22.13,22.13,0,0,1,4.49,6.84A21.24,21.24,0,0,1,79.32,84.63Z" transform="translate(-3.5 -21.79)"/><path class="cls-3" d="M79.37,84.63c.2,11.14-9.4,20.93-20.43,21.49-11.31,1.06-21.77-7.5-23.52-18.63h.24l6.47,0h.18l0,.17c1.7,6.56,8.24,11.84,15.07,11.71,16.24-.42,20.49-22.29,5.4-28.44-5.28-2.15-15.48-.73-18.1,4.89l-.12.34L44.25,76l-5.46-1.47-.35-.09.06-.36,4.92-31.19.06-.4h.41l30.15,0h.5v6.73H61.6l-12.44-.07.41-.34L46.32,66.93l-.53-.26c2.94-2.8,7.14-3.41,11-3.79,12.17-1,22.86,9.7,22.58,21.75Zm-.1,0c.14-11.89-10.46-22.38-22.45-21.26-3.65.37-7.89,1.08-10.57,3.71l-.71.77.17-1,3-18.15.06-.34h.35c6.2,0,18.69-.1,24.88-.08l-.5.5V43l.49.5-30.15,0,.47-.4L39.29,74.24,39,73.79l5.46,1.49-.48.25c1.47-3.48,5.28-4.92,8.64-5.8,6.86-1.83,14.95.85,18.31,7.37a15.47,15.47,0,0,1-3.71,19.25c-9,7.42-22.38,2.39-25.3-8.61l.21.17-6.47,0,.19-.23a22.51,22.51,0,0,0,8,13.62c13.86,11.17,35.38,1.33,35.43-16.64Z" transform="translate(-3.5 -21.79)"/></svg>